<?xml version="1.0" encoding="utf-8"?>
<!-- Generator: Adobe Illustrator 27.0.1, SVG Export Plug-In . SVG Version: 6.00 Build 0)  -->
<svg version="1.0" xmlns="http://www.w3.org/2000/svg" xmlns:xlink="http://www.w3.org/1999/xlink" x="0px" y="0px"
	 viewBox="0 0 1283.82 993.18" style="enable-background:new 0 0 1283.82 993.18;" xml:space="preserve">
<style type="text/css">
	.st0{fill:none;stroke:#010202;stroke-width:15;stroke-linecap:round;stroke-linejoin:round;stroke-miterlimit:10;}
	.st1{fill:#010202;}
	.st2{fill:#FFFFFF;stroke:#010202;stroke-miterlimit:10;}
	.st3{fill:#FFFFFF;}
	.st4{fill:none;stroke:#010202;stroke-width:50;stroke-linecap:round;stroke-linejoin:round;stroke-miterlimit:10;}
	.st5{fill:none;stroke:#FFFFFF;stroke-width:50;stroke-linecap:round;stroke-linejoin:round;stroke-miterlimit:10;}
</style>
<g id="logo_x5F_1">
</g>
<g id="logo_x5F_3">
</g>
<g id="logo_x5F_4">
</g>
<g id="logo_x5F_a">
</g>
<g id="logo_c">
</g>
<g id="logo_d">
	<g>
		<path class="st3" d="M588.31,168.75c0,0,42.23,59,56.04,183.37c0.73,6.54,1.89,13.01,3.44,19.41
			c5.17,21.35,17.43,65.84,31.13,71.92c18.12,8.05,58.89-12.58,58.89-12.58l-97.65-186.24c0,0,58.39,5.54,171.64-9.56l20.64,118.79
			c0,0-15.21-40.86-39.8-39.79c-3.75,0.16-6.74,3.09-6.89,6.83c-0.21,5.44,1.97,15.5,11.46,33.97
			c19.13,37.25,24.66,46.31,24.66,46.31l84.56-42.28l31.71,144.96c0,0-32.21-66.44-56.37-49.33l-22.65,12.58
			c0,0,58.17,114.13,75.5,160.06c17.28,45.8-5.03,130.87-95.13,140.93s-143.95-4.03-143.95-4.03s-80.53-17.62-127.85,0
			c-47.31,17.62-20.64,101.17-7.55,134.89L317.51,618.11c0,0,65.94-91.1,181.2-73.49c0,0-25.78-4.14-32.43-94.74
			c-0.87-11.82-3.23-23.5-7.18-34.67c-4.46-12.6-10.99-26.64-18.73-29.93c0,0-11.12-5.75-34.77,17.91l-33.89-33.56L588.31,168.75z
			 M634.37,559.47c45.05,30.2,123.07,42.03,123.07,42.03c87.08,11.58,13.84-88.08,13.84-88.08L634.37,559.47z"/>
		<path class="st3" d="M426.37,478.98L426.37,478.98c-53.78,0-53.78-24.08-53.78-53.78v0 M318.82,478.98L318.82,478.98
			c53.78,0,53.78-24.08,53.78-53.78v0 M426.37,478.98L426.37,478.98c-53.78,0-53.78,24.08-53.78,53.78v0 M372.6,532.75L372.6,532.75
			c0-53.78-24.08-53.78-53.78-53.78h0"/>
	</g>
	<polygon class="st5" points="1254.52,191.18 1254.52,964.82 31.93,961.82 31.93,188.18 157.58,188.56 157.58,90.35 291.69,90.35 
		291.69,188.56 410.83,188.56 479.78,31.06 816.87,31.06 886.75,189.18 	"/>
</g>
</svg>
